<svg xmlns="http://www.w3.org/2000/svg" xmlns:xlink="http://www.w3.org/1999/xlink" width="22" height="16" version="1.1" viewBox="0 0 22 16"><title>baseline-visibility-24px</title><desc>Created with Sketch Beta.</desc><g id="Page-1" fill="none" fill-rule="evenodd" stroke="none" stroke-width="1"><g id="dashboard_laptop-copy-5" transform="translate(-82.000000, -661.000000)"><g id="baseline-visibility-24px" transform="translate(81.000000, 657.000000)"><polygon id="Shape" points="0 0 24 0 24 24 0 24"/><path id="Shape" fill="#FFF" fill-rule="nonzero" d="M12,4.5 C7,4.5 2.73,7.61 1,12 C2.73,16.39 7,19.5 12,19.5 C17,19.5 21.27,16.39 23,12 C21.27,7.61 17,4.5 12,4.5 Z M12,17 C9.24,17 7,14.76 7,12 C7,9.24 9.24,7 12,7 C14.76,7 17,9.24 17,12 C17,14.76 14.76,17 12,17 Z M12,9 C10.34,9 9,10.34 9,12 C9,13.66 10.34,15 12,15 C13.66,15 15,13.66 15,12 C15,10.34 13.66,9 12,9 Z"/></g></g></g></svg>