<svg xmlns="http://www.w3.org/2000/svg" xmlns:xlink="http://www.w3.org/1999/xlink" width="23" height="23" version="1.1" viewBox="0 0 23 23"><title>ic_paused</title><desc>Created with Sketch.</desc><g id="Page-1" fill="none" fill-rule="evenodd" stroke="none" stroke-width="1"><g id="dashboard_split_cards" transform="translate(-388.000000, -1044.000000)"><g id="ic_paused" transform="translate(387.200000, 1044.000000)"><polygon id="Shape" points="0 0 22 0 22 16.5 0 16.5"/><path id="Shape" fill="#4A90E2" fill-rule="nonzero" d="M11.9166667,0.6875 C5.84466667,0.6875 0.916666667,5.6155 0.916666667,11.6875 C0.916666667,17.7595 5.84466667,22.6875 11.9166667,22.6875 C17.9886667,22.6875 22.9166667,17.7595 22.9166667,11.6875 C22.9166667,5.6155 17.9886667,0.6875 11.9166667,0.6875 Z M10.8166667,16.0875 L8.61666667,16.0875 L8.61666667,7.2875 L10.8166667,7.2875 L10.8166667,16.0875 Z M15.2166667,16.0875 L13.0166667,16.0875 L13.0166667,7.2875 L15.2166667,7.2875 L15.2166667,16.0875 Z"/></g></g></g></svg>