<svg xmlns="http://www.w3.org/2000/svg" xmlns:xlink="http://www.w3.org/1999/xlink" width="20" height="20" version="1.1" viewBox="0 0 20 20"><title>baseline-play_circle_outline-24px</title><desc>Created with Sketch.</desc><g id="Page-1" fill="none" fill-rule="evenodd" stroke="none" stroke-width="1"><g id="dashboard_laptop-copy" fill="#FFF" fill-rule="nonzero" transform="translate(-512.000000, -352.000000)"><g id="baseline-play_circle_outline-24px" transform="translate(512.000000, 352.000000)"><path id="Shape" d="M8,14.5 L14,10 L8,5.5 L8,14.5 Z M10,0 C4.48,0 0,4.48 0,10 C0,15.52 4.48,20 10,20 C15.52,20 20,15.52 20,10 C20,4.48 15.52,0 10,0 Z M10,18 C5.59,18 2,14.41 2,10 C2,5.59 5.59,2 10,2 C14.41,2 18,5.59 18,10 C18,14.41 14.41,18 10,18 Z"/></g></g></g></svg>