<svg xmlns="http://www.w3.org/2000/svg" xmlns:xlink="http://www.w3.org/1999/xlink" width="21" height="21" version="1.1" viewBox="0 0 21 21"><title>ic_account_box_white_24px</title><desc>Created with Sketch.</desc><g id="Page-1" fill="none" fill-rule="evenodd" stroke="none" stroke-width="1"><g id="concourse_login_00_max_10" transform="translate(-612.000000, -600.000000)"><g id="Group-3" transform="translate(604.000000, 200.000000)"><g id="ic_account_box_white_24px" transform="translate(4.000000, 396.000000)"><path id="Shape" fill="#FFF" fill-rule="nonzero" d="M4,6.33333333 L4,22.6666667 C4,23.95 5.03833333,25 6.33333333,25 L22.6666667,25 C23.95,25 25,23.95 25,22.6666667 L25,6.33333333 C25,5.05 23.95,4 22.6666667,4 L6.33333333,4 C5.03833333,4 4,5.05 4,6.33333333 Z M18,11 C18,12.9366667 16.4366667,14.5 14.5,14.5 C12.5633333,14.5 11,12.9366667 11,11 C11,9.06333333 12.5633333,7.5 14.5,7.5 C16.4366667,7.5 18,9.06333333 18,11 Z M7.5,20.3333333 C7.5,18 12.1666667,16.7166667 14.5,16.7166667 C16.8333333,16.7166667 21.5,18 21.5,20.3333333 L21.5,21.5 L7.5,21.5 L7.5,20.3333333 Z"/><polygon id="Shape" points="0 0 28 0 28 28 0 28"/></g></g></g></g></svg>